# xmcd
#
# Track frame offsets: 
#        150
#        19435
#        35909
#        54887
#        70522
#        85430
#        101201
#        117835
#
# Disc length: 1760 seconds
#
# Revision: 0
# Processed by: cddbd v1.5.2PL0 Copyright (c) Steve Scherf et al.
# Submitted via: ExactAudioCopyFreeDBPlugin 1.0
#
DISCID=6a06de08
DTITLE=Carla Morrison - Mientras Tú Dormías...
DYEAR=2013
DGENRE=Indie
TTITLE0=Compartir
TTITLE1=Como Es
TTITLE2=Suciedad
TTITLE3=Yo Sigo Aquí
TTITLE4=Este Momento
TTITLE5=Tu Luz
TTITLE6=Una Salida
TTITLE7=Pajarito del Amor (Dueto con Natalia Lafourcade)
EXTD=
EXTT0=
EXTT1=
EXTT2=
EXTT3=
EXTT4=
EXTT5=
EXTT6=
EXTT7=
PLAYORDER=
